<svg
  xmlns="http://www.w3.org/2000/svg"
  xml:space="preserve"
  viewBox="0 0 1821.333 1024"
>
    <g
      clip-path="url(#a)"
      transform="matrix(1.33333 0 0 -1.33333 0 1024)"
    >
    <path
      d="M0 0c-9.453 0-17.116 7.663-17.116 17.116 0 9.454 7.663 17.117 17.116 17.117 9.454 0 17.117-7.663 17.117-17.117C17.117 7.663 9.454 0 0 0m0 45.645c-15.755 0-28.527-12.773-28.527-28.529 0-3.471.65-6.783 1.786-9.861l-.049.035-100.634-106.186-7.607-11.412-155.953-159.756 167.364 152.149 7.607 3.804L-8.352-10.162A28.487 28.487 0 0 1 0-11.411c15.756 0 28.528 12.772 28.528 28.527 0 15.756-12.772 28.529-28.528 28.529" style="fill:#fff;fill-opacity:1;fill-rule:nonzero;stroke:none"
      transform="translate(890.778 573.356)"
    />
    <path
      d="M0 0c0-26.153-21.202-47.355-47.355-47.355C-73.509-47.355-94.71-26.153-94.71 0c0 26.153 21.201 47.355 47.355 47.355C-21.202 47.355 0 26.153 0 0" style="fill:#305c5a;fill-opacity:1;fill-rule:nonzero;stroke:none"
      transform="translate(541.404 378.8)"
    />
    <path
      d="M0 0c0-26.153-21.202-47.354-47.355-47.354C-73.508-47.354-94.71-26.153-94.71 0s21.202 47.355 47.355 47.355C-21.202 47.355 0 26.153 0 0" style="fill:#305c5a;fill-opacity:1;fill-rule:nonzero;stroke:none"
      transform="translate(595.19 250.182)"
    />
    <path
      d="M0 0c0-26.153-21.201-47.355-47.355-47.355C-73.509-47.355-94.71-26.153-94.71 0c0 26.153 21.201 47.355 47.355 47.355C-21.201 47.355 0 26.153 0 0"
      style="fill:#305c5a;fill-opacity:1;fill-rule:nonzero;stroke:none"
      transform="translate(905.044 378.8)"
    />
    <path
      d="M0 0c0-26.153-21.201-47.354-47.354-47.354C-73.508-47.354-94.71-26.153-94.71 0s21.202 47.355 47.356 47.355C-21.201 47.355 0 26.153 0 0"
      style="fill:#305c5a;fill-opacity:1;fill-rule:nonzero;stroke:none"
      transform="translate(852.427 509.758)"
    />
    <path
      d="M0 0c0-11.624-9.423-21.047-21.047-21.047S-42.094-11.624-42.094 0s9.423 21.047 21.047 21.047S0 11.624 0 0"
      style="fill:#305c5a;fill-opacity:1;fill-rule:nonzero;stroke:none"
      transform="translate(791.626 341.969)"
    />
    <path
      d="M0 0c0-11.624-9.423-21.047-21.047-21.047-11.623 0-21.046 9.423-21.046 21.047s9.423 21.047 21.046 21.047C-9.423 21.047 0 11.624 0 0"
      style="fill:#305c5a;fill-opacity:1;fill-rule:nonzero;stroke:none"
      transform="translate(606.882 416.802)"
    />
    <path
      d="M0 0c-8.185 16.37-17.539 33.909-52.617 30.401-37.416-3.507-39.755-40.923-37.416-51.447 5.173-23.281 26.893-44.433 53.786-39.755 19.877 5.846 25.724 12.862 40.924 11.693 15.2-1.169 19.878-14.032 19.878-14.032 5.846-15.2 21.046-17.539 21.046-17.539 18.709-2.339 24.555 10.524 24.555 10.524 7.015 12.862 7.015 23.384-1.17 35.078-8.184 11.692-24.554 7.015-24.554 7.015-8.185-3.507-16.871-6.696-29.232 1.169C2.338-18.708 3.454-6.907 0 0"
      style="fill:#305c5a;fill-opacity:1;fill-rule:nonzero;stroke:none"
      transform="translate(592.851 523.204)"
    />
    <path
      d="M0 0c6.311 17.18 12.672 36.012-13.923 59.151-28.198 24.844-57.047.904-63.108-8.011-13.407-19.723-13.925-50.036 7.912-66.414 17.88-10.468 26.996-9.917 36.562-21.789 9.566-11.87 3.406-24.09 3.406-24.09C-36.214-75.828-27.5-88.5-27.5-88.5c11.119-15.227 24.492-10.669 24.492-10.669 14.175 3.706 21.838 10.918 24.743 24.892 2.906 13.973-11.719 22.689-11.719 22.689C1.852-48.032-6.424-43.892-9.167-29.5-12.021-14.524-2.663-7.249 0 0"
      style="fill:#305c5a;fill-opacity:1;fill-rule:nonzero;stroke:none"
      transform="translate(718.586 541.286)"
    />
    <path
      d="M0 0c8.185-16.369 17.538-33.908 52.616-30.4 37.417 3.507 39.755 40.923 37.417 51.447-5.174 23.28-26.893 44.432-53.786 39.755-19.878-5.847-25.725-12.863-40.925-11.693-15.2 1.169-19.877 14.032-19.877 14.032-5.846 15.2-21.047 17.538-21.047 17.538-18.708 2.339-24.554-10.523-24.554-10.523-7.016-12.862-7.016-23.385 1.169-35.078 8.185-11.692 24.554-7.016 24.554-7.016 8.186 3.508 16.871 6.697 29.232-1.168C-2.339 18.708-3.454 6.907 0 0"
      style="fill:#305c5a;fill-opacity:1;fill-rule:nonzero;stroke:none"
      transform="translate(762.28 235.012)"
    />
    <path
      d="M0 0c-3.934 14.029-11.203 21.639-25.055 24.577C-38.906 27.516-47.226 13.1-47.226 13.1c-3.351-8.053-7.278-16.213-21.432-18.857C-83.387-8.507-90.751.777-97.96 3.444c-17.082 6.321-35.797 12.699-58.123-13.481-8.758-10.137-11.085-20.391-10.082-29.617-1.593-2.122-3.533-4.167-6.065-6.231-11.533-9.399-23.717-3.251-23.717-3.251-14.624 7.051-26.965-1.504-26.965-1.504-14.815-10.918-10.056-24.159-10.056-24.159 3.934-14.028 11.203-21.638 25.055-24.576 13.851-2.938 22.171 11.477 22.171 11.477 3.352 8.053 7.279 15.044 21.432 17.687 5.147.961 9.38 2.038 13.036 1.413 1.618-1.598 3.115-2.839 4.328-3.659 19.731-13.348 49.666-14.003 65.41 7.505 9.987 17.625 9.266 26.639 20.799 36.038 11.532 9.4 23.716 3.252 23.716 3.252 14.625-7.051 26.965 1.503 26.965 1.503C4.76-13.24 0 0 0 0"
      style="fill:#305c5a;fill-opacity:1;fill-rule:nonzero;stroke:none"
      transform="translate(794.373 415.781)"
    />
    <path
      d="M0 0c-6.416-17.067-12.898-35.772 13.246-58.433 27.717-24.333 56.537-.36 62.628 8.523 13.473 19.652 14.27 49.668-7.221 65.68-17.625 10.196-26.665 9.566-36.036 21.228-9.371 11.663-3.15 23.82-3.15 23.82 7.137 14.595-1.382 27.06-1.382 27.06C17.207 102.849 3.91 98.211 3.91 98.211c-14.085-3.802-21.748-11.014-24.759-24.876-3.01-13.862 11.404-22.354 11.404-22.354 8.059-3.444 16.223-7.465 18.807-21.689C12.051 14.492 2.708 7.202 0 0"
      style="fill:#305c5a;fill-opacity:1;fill-rule:nonzero;stroke:none"
      transform="translate(636.542 218.03)"
    />
    <path
      d="M0 0c-9.453 0-17.116 7.663-17.116 17.116 0 9.454 7.663 17.117 17.116 17.117 9.454 0 17.117-7.663 17.117-17.117C17.117 7.663 9.454 0 0 0m0 45.645c-15.755 0-28.527-12.773-28.527-28.529 0-3.471.65-6.783 1.786-9.861l-.049.035-100.634-106.186-7.607-11.412-73.252-75.039s.066-4.839.981-4.839c3.803 0 5.295 1.01 5.295 1.01l78.387 71.261 7.607 3.804L-8.352-10.162A28.487 28.487 0 0 1 0-11.411c15.756 0 28.528 12.772 28.528 28.527 0 15.756-12.772 28.529-28.528 28.529"
      style="fill:#fff;fill-opacity:1;fill-rule:nonzero;stroke:none"
      transform="translate(890.778 573.356)"
    />
  </g>
</svg>
